<svg
   xmlns="http://www.w3.org/2000/svg"
   version="1.1"
   viewBox="0 0 1969.7408 1074.4041">
    <path
       style="fill:#494949;fill-opacity:1;stroke-width:0.99481863"
       d="m 674.72144,-164.74459 c 0.25981,-0.68393 1.6651,-5.16062 3.12288,-9.94818 2.49888,-8.20675 2.80792,-8.70466 5.40275,-8.70466 2.61978,0 2.89897,0.47883 5.80022,9.94818 l 3.04795,9.94819 h -2.33137 c -1.67034,0 -2.51221,-0.72048 -2.96913,-2.54103 -0.53767,-2.14224 -1.1261,-2.49352 -3.74953,-2.23834 -2.35514,0.22909 -3.18906,0.84693 -3.42966,2.54103 -0.23429,1.64963 -0.9818,2.23834 -2.84218,2.23834 -1.60816,0 -2.35286,-0.45131 -2.05193,-1.24353 z m 10.1328,-8.95336 c -0.37663,-1.23109 -1.06469,-2.90985 -1.52901,-3.73057 -0.75043,-1.32642 -0.84911,-1.32642 -0.88807,0 -0.0241,0.82072 -0.31377,2.49948 -0.64369,3.73057 -0.48803,1.82109 -0.19485,2.23834 1.57286,2.23834 1.79285,0 2.05298,-0.39132 1.48791,-2.23834 z m 30.39527,2.23834 c 0,-7.82591 -0.0415,-7.95855 -2.48705,-7.95855 -1.82383,0 -2.48705,-0.53057 -2.48705,-1.98964 0,-1.82534 0.66322,-1.98963 8.03149,-1.98963 7.11161,0 7.99369,0.1994 7.70134,1.74093 -0.19912,1.05001 -1.41251,1.86586 -3.05739,2.05571 -2.71749,0.31366 -2.72725,0.34301 -2.72725,8.20725 0,7.75543 -0.0432,7.89248 -2.48705,7.89248 -2.44559,0 -2.48704,-0.13264 -2.48704,-7.95855 z m 14.99448,5.33734 c -3.02446,-3.84497 -2.89192,-12.16925 0.24062,-15.11212 4.71841,-4.43272 11.87594,-1.71346 12.84358,4.87948 1.12225,7.64634 -1.9776,12.85385 -7.65145,12.85385 -2.45675,0 -3.93006,-0.71085 -5.43275,-2.62121 z m 8.38375,-4.34252 c 0.36053,-1.64145 0.36053,-4.32746 0,-5.96891 -1.1769,-5.35841 -6.46632,-2.91714 -6.46632,2.98445 0,5.90159 5.28942,8.34286 6.46632,2.98446 z m 9.31228,5.06198 c -2.00944,-1.62714 -2.34855,-2.78897 -2.34855,-8.04644 0,-5.25747 0.33911,-6.41929 2.34855,-8.04644 1.29171,-1.04596 3.59237,-1.90174 5.11259,-1.90174 1.52023,0 3.82088,0.85578 5.1126,1.90174 2.00944,1.62715 2.34854,2.78897 2.34854,8.04644 0,5.25747 -0.3391,6.4193 -2.34854,8.04644 -1.29172,1.04596 -3.59237,1.90175 -5.1126,1.90175 -1.52022,0 -3.82088,-0.85579 -5.11259,-1.90175 z m 7.59964,-8.04644 c 0,-5.17306 -0.13565,-5.4715 -2.48705,-5.4715 -2.22537,0 -2.51981,0.45682 -2.79851,4.34179 -0.4092,5.70417 0.29676,7.30962 3.04277,6.91969 2.01672,-0.28637 2.24279,-0.87 2.24279,-5.78998 z m 9.45078,0 c 0,-9.28497 0.13264,-9.94818 1.98963,-9.94818 1.82264,0 1.98964,0.66321 1.98964,7.90134 v 7.90135 l 4.21939,0.30591 c 3.07789,0.22314 4.30874,0.77689 4.54964,2.04683 0.28736,1.51496 -0.51858,1.74094 -6.20904,1.74094 h -6.53926 z m 33.82383,0 v -9.94818 h 7.03667 c 6.16418,0 6.99573,0.21586 6.70645,1.74093 -0.2409,1.26994 -1.47175,1.82369 -4.54963,2.04684 -3.7275,0.27024 -4.2194,0.58917 -4.2194,2.73575 0,2.22237 0.38847,2.42984 4.54963,2.42984 3.79557,0 4.49489,0.28855 4.2194,1.74094 -0.2409,1.26994 -1.47175,1.82369 -4.54963,2.04683 -4.08629,0.29626 -4.2194,0.41394 -4.2194,3.73057 0,2.98976 -0.31583,3.42467 -2.48704,3.42467 h -2.48705 z m 18.97376,7.32698 c -3.02446,-3.84497 -2.89192,-12.16925 0.24061,-15.11212 4.71842,-4.43272 11.87595,-1.71346 12.84359,4.87948 1.12224,7.64634 -1.9776,12.85385 -7.65145,12.85385 -2.45675,0 -3.93006,-0.71085 -5.43275,-2.62121 z m 8.38375,-4.34252 c 0.36052,-1.64145 0.36052,-4.32746 0,-5.96891 -1.1769,-5.35841 -6.46632,-2.91714 -6.46632,2.98445 0,5.90159 5.28942,8.34286 6.46632,2.98446 z m 7.46114,-2.98446 v -9.94818 h 5.25014 c 6.16532,0 9.67214,2.00425 9.67214,5.5279 0,1.33686 -0.84728,3.27792 -1.88285,4.31349 -1.84723,1.84724 -1.83677,1.96009 0.5538,5.96891 l 2.43664,4.08607 h -2.4623 c -1.74095,0 -3.09271,-1.02004 -4.6142,-3.48187 -1.18356,-1.91502 -2.56307,-3.48186 -3.0656,-3.48186 -0.50252,0 -0.91368,1.56684 -0.91368,3.48186 0,3.05078 -0.30791,3.48187 -2.48704,3.48187 h -2.48705 z m 9.76867,-3.73057 c 0.2589,-1.82298 -0.15645,-2.23834 -2.23834,-2.23834 -2.08189,0 -2.55624,0.47435 -2.55624,2.55624 0,2.08189 0.41536,2.49724 2.23834,2.23834 1.43847,-0.2043 2.35194,-1.11777 2.55624,-2.55624 z m 27.29709,11.44042 c -2.01883,-2.17357 -2.70599,-5.31053 -2.39713,-10.94301 0.21298,-3.88397 3.42185,-6.71502 7.61116,-6.71502 3.29347,0 7.46114,2.71363 7.46114,4.85806 0,1.62831 -3.95544,1.97159 -4.82448,0.41871 -1.26522,-2.26082 -4.45877,-1.14023 -5.5439,1.94533 -1.97033,5.60259 2.92055,11.43428 6.02685,7.18617 1.28395,-1.75592 4.34153,-1.41591 4.34153,0.48279 0,0.56432 -0.89534,1.92137 -1.98964,3.01567 -2.74338,2.74338 -8.02053,2.62056 -10.68553,-0.2487 z m 16.72665,-0.38287 c -1.42591,-1.81274 -2.06184,-4.07263 -2.06184,-7.32698 0,-8.05603 5.66265,-12.31173 11.92355,-8.96101 4.33479,2.31991 4.93443,12.99421 0.9536,16.97505 -2.90689,2.90689 -8.25559,2.5671 -10.81531,-0.68706 z m 8.27732,-2.93166 c 0.8745,-2.27892 0.71308,-7.65673 -0.27671,-9.21859 -0.46755,-0.73777 -1.69178,-1.18158 -2.72052,-0.98624 -1.42784,0.27113 -1.94413,1.38052 -2.1819,4.68838 -0.17131,2.38327 -0.0734,4.9535 0.21749,5.71162 0.72212,1.88184 4.21737,1.74435 4.96164,-0.19517 z m 7.56757,-4.39532 v -9.94818 h 2.74196 c 2.42557,0 2.99002,0.66004 4.89177,5.7202 l 2.14982,5.72021 0.0824,-5.72021 c 0.0723,-5.02955 0.32254,-5.7202 2.07195,-5.7202 1.85788,0 1.98964,0.66321 1.98964,10.01426 v 10.01426 l -2.65903,-0.31478 c -2.26987,-0.26871 -2.96146,-1.18836 -4.72539,-6.28369 l -2.06636,-5.96892 -0.29617,6.21762 c -0.25735,5.40261 -0.55076,6.21762 -2.23835,6.21762 -1.79691,0 -1.94221,-0.74427 -1.94221,-9.94819 z m 22.35742,8.70466 c -0.25353,-0.68393 -1.77793,-5.16062 -3.38756,-9.94818 l -2.9266,-8.70466 h 2.39617 c 2.06488,0 2.62158,0.79091 4.02634,5.7202 0.89658,3.14612 1.9569,6.07414 2.35626,6.5067 0.39935,0.43258 1.51867,-2.14151 2.48737,-5.7202 1.57107,-5.80401 2.02943,-6.5067 4.2443,-6.5067 1.57333,0 2.31117,0.45557 2.01399,1.24352 -0.25797,0.68394 -1.74115,5.16062 -3.29595,9.94818 -2.48013,7.63684 -3.11069,8.70467 -5.14014,8.70467 -1.27227,0 -2.52065,-0.55959 -2.77418,-1.24353 z m 12.95864,-8.70369 v -9.9475 l 7.28537,-8.3e-4 c 6.40143,-7.3e-4 7.24528,0.2104 6.95479,1.74011 -0.2491,1.31178 -1.49324,1.81567 -5.04703,2.04414 -3.90503,0.25105 -4.71645,0.63613 -4.71645,2.23834 0,1.31226 0.72047,1.96918 2.23835,2.04088 5.49327,0.25953 6.20143,0.49111 6.52148,2.1326 0.28343,1.45372 -0.41112,1.74093 -4.2102,1.74093 -3.88641,0 -4.54963,0.29004 -4.54963,1.98964 0,1.72434 0.66322,1.98963 4.9741,1.98963 4.31087,0 4.97409,0.26529 4.97409,1.98964 0,1.80667 -0.66326,1.98965 -7.21244,1.98978 l -7.21243,1.4e-4 z m 17.40933,-9.7e-4 v -9.94818 h 5.81472 c 4.3698,0 6.22385,0.45207 7.46114,1.81926 2.07541,2.29331 2.11374,5.96364 0.0856,8.20463 -1.42343,1.57287 -1.37789,2.08301 0.51763,5.79854 l 2.07837,4.07394 h -2.52336 c -1.90437,0 -2.93066,-0.85412 -4.18374,-3.48187 -0.91322,-1.91502 -2.24898,-3.48186 -2.96836,-3.48186 -0.83162,0 -1.30798,1.26807 -1.30798,3.48186 0,3.05078 -0.30792,3.48187 -2.48705,3.48187 h -2.48704 v -9.94819 z m 9.91202,-2.44347 c 1.60652,-1.93574 0.4749,-3.52544 -2.5096,-3.52544 -1.92701,0 -2.42833,0.51345 -2.42833,2.48705 0,2.84508 2.92758,3.46071 4.93793,1.03839 z m 11.97398,4.43311 c 0,-7.82591 -0.0415,-7.95855 -2.48704,-7.95855 -1.82383,0 -2.48705,-0.53057 -2.48705,-1.98964 0,-1.82534 0.66322,-1.98963 8.03149,-1.98963 7.11161,0 7.99369,0.1994 7.70134,1.74093 -0.19912,1.05001 -1.41251,1.86586 -3.0574,2.05571 -2.71748,0.31366 -2.72724,0.34301 -2.72724,8.20725 0,7.75543 -0.0432,7.89248 -2.48705,7.89248 -2.44559,0 -2.48705,-0.13264 -2.48705,-7.95855 z m 13.92746,5.96891 c 0,-1.32642 0.66322,-1.98964 1.98964,-1.98964 1.76857,0 1.98964,-0.66321 1.98964,-5.96891 0,-5.30569 -0.22107,-5.96891 -1.98964,-5.96891 -1.32642,0 -1.98964,-0.66322 -1.98964,-1.98964 0,-1.78557 0.66322,-1.98963 6.46633,-1.98963 5.2534,0 6.4663,0.29736 6.4663,1.58536 0,0.87195 -0.8953,1.81949 -1.9896,2.10566 -1.6995,0.44443 -1.9897,1.35695 -1.9897,6.25716 0,4.90021 0.2902,5.81274 1.9897,6.25716 1.0943,0.28617 1.9896,1.23372 1.9896,2.10566 0,1.28801 -1.2129,1.58537 -6.4663,1.58537 -5.80311,0 -6.46633,-0.20407 -6.46633,-1.98964 z m 16.91193,-8.02462 v -10.01427 l 2.7357,0.31478 c 2.3488,0.27027 3.044,1.15902 4.915,6.2837 l 2.1792,5.96891 0.06,-6.21762 c 0.053,-5.53469 0.2776,-6.21761 2.0487,-6.21761 1.8578,0 1.9896,0.66321 1.9896,10.01426 v 10.01426 l -2.7357,-0.31478 c -2.3488,-0.27026 -3.044,-1.15902 -4.915,-6.28369 l -2.1792,-5.96892 -0.06,6.21762 c -0.053,5.53469 -0.2776,6.21762 -2.0487,6.21762 -1.8578,0 -1.9896,-0.66322 -1.9896,-10.01426 z m 18.9737,7.39305 c -1.4258,-1.81274 -2.0618,-4.07263 -2.0618,-7.32698 0,-6.18195 2.7936,-9.94818 7.3791,-9.94818 3.2141,0 6.5483,2.4459 6.5483,4.80372 0,0.64085 -0.8953,1.16519 -1.9896,1.16519 -1.0943,0 -1.9896,-0.47881 -1.9896,-1.06401 0,-0.5852 -0.9924,-0.92095 -2.2052,-0.74612 -5.0314,0.72534 -4.3856,11.75831 0.6883,11.75831 1.8484,0 2.5117,-0.52536 2.5117,-1.98963 0,-1.32643 -0.6633,-1.98964 -1.9897,-1.98964 -1.1053,0 -1.9896,-0.66322 -1.9896,-1.49223 0,-1.07772 1.1053,-1.49223 3.9793,-1.49223 h 3.9793 v 4.317 c 0,3.66068 -0.3852,4.49253 -2.5339,5.4715 -4.2912,1.95523 -8.0554,1.42059 -10.3266,-1.4667 z m 35.6983,0.79684 c -1.7132,-1.38724 -2.3635,-3.15772 -2.7145,-7.38915 -0.4124,-4.97353 -0.1896,-5.83666 2.0976,-8.12381 1.7425,-1.74248 3.6354,-2.55904 5.932,-2.55904 4.9836,0 8.8697,4.91027 5.047,6.37716 -0.9422,0.36157 -2.1129,-0.0549 -2.8015,-0.99656 -0.6505,-0.88973 -2.0486,-1.45289 -3.1067,-1.25148 -1.5621,0.29732 -1.9805,1.34883 -2.2249,5.5908 -0.3909,6.78207 1.5453,7.88682 6.9887,3.98752 2.9522,-2.11479 4.1832,0.40588 1.7246,3.53145 -2.5252,3.21034 -7.5354,3.5918 -10.9423,0.83311 z m 16.3229,-8.10379 c 2.9215,-9.29927 3.2872,-9.92944 5.7727,-9.94819 2.4671,-0.0186 2.8695,0.62742 5.7202,9.1845 1.6866,5.0625 3.0666,9.53918 3.0666,9.94819 0,1.95759 -4.1154,0.51518 -4.9741,-1.74339 -0.7103,-1.86816 -1.6675,-2.48705 -3.8468,-2.48705 -2.265,0 -3.0382,0.54542 -3.5254,2.48705 -0.4459,1.77627 -1.297,2.48705 -2.9782,2.48705 h -2.354 z m 7.5258,0.22868 c -0.067,-1.65768 -1.7032,-6.27281 -1.8498,-5.21624 -0.039,0.27719 -0.4863,1.95595 -0.9953,3.73057 -0.8156,2.8441 -0.6978,3.2266 0.9948,3.2266 1.1922,0 1.8938,-0.66005 1.8503,-1.74093 z m 9.0233,-0.24871 v -9.94818 h 6.9637 c 6.3005,0 6.9638,0.18949 6.9638,1.98963 0,1.69487 -0.6633,1.98964 -4.4767,1.98964 -4.1119,0 -4.4767,0.20264 -4.4767,2.48705 0,2.2903 0.3599,2.48704 4.5496,2.48704 3.8006,0 4.4931,0.28663 4.2063,1.74094 -0.2623,1.32948 -1.3378,1.74093 -4.551,1.74093 -4.199,0 -4.2075,0.008 -4.2062,3.73057 0,3.3164 -0.2748,3.73057 -2.4858,3.73057 h -2.487 z m 17.9067,0 v -9.94818 h 7.0367 c 6.1661,0 6.9952,0.21538 6.7014,1.74093 -0.3439,1.78584 -0.6576,1.90058 -5.7795,2.11399 -2.4871,0.10363 -2.9845,0.53886 -2.9845,2.6114 0,2.23834 0.398,2.48704 3.9793,2.48704 3.316,0 3.9793,0.33161 3.9793,1.98964 0,1.65803 -0.6633,1.98964 -3.9793,1.98964 -3.8846,0 -3.9793,0.0829 -3.9793,3.48186 0,3.05078 -0.3079,3.48187 -2.487,3.48187 h -2.4871 z m 16.9119,0 v -9.94818 h 6.9638 c 6.3005,0 6.9637,0.18949 6.9637,1.98963 0,1.69487 -0.6632,1.98964 -4.4767,1.98964 -3.8134,0 -4.4767,0.29476 -4.4767,1.98964 0,1.65803 0.6633,1.98963 3.9793,1.98963 3.316,0 3.9793,0.33161 3.9793,1.98964 0,1.65804 -0.6633,1.98964 -3.9793,1.98964 -3.316,0 -3.9793,0.3316 -3.9793,1.98964 0,1.60158 0.6633,1.98963 3.4005,1.98963 4.3824,0 6.5477,0.85766 6.5477,2.59348 0,1.06134 -1.7469,1.3858 -7.4611,1.3858 h -7.4612 z m 18.1207,8.20725 c 0.1978,-0.95751 1.126,-1.67875 2.0625,-1.60276 1.4534,0.11793 1.7029,-0.8498 1.7029,-6.60449 0,-5.75469 -0.2495,-6.72242 -1.7029,-6.60449 -0.9365,0.076 -1.8647,-0.64525 -2.0625,-1.60276 -0.3161,-1.5292 0.5049,-1.74093 6.7498,-1.74093 6.2342,0 7.0688,0.21435 6.7778,1.74093 -0.1824,0.95751 -1.3344,1.88399 -2.56,2.05882 -2.018,0.28792 -2.2282,0.86767 -2.2282,6.14843 0,5.28077 0.2102,5.86051 2.2282,6.14843 1.2256,0.17484 2.3776,1.10131 2.56,2.05882 0.291,1.52658 -0.5436,1.74094 -6.7778,1.74094 -6.2449,0 -7.0659,-0.21174 -6.7498,-1.74094 z m 16.698,-8.20725 v -9.94818 h 2.7419 c 2.4256,0 2.99,0.66004 4.8918,5.7202 l 2.1498,5.72021 0.083,-5.72021 c 0.073,-5.02955 0.3225,-5.7202 2.0719,-5.7202 1.8578,0 1.9897,0.66321 1.9897,10.01426 v 10.01426 l -2.6591,-0.31478 c -2.2699,-0.26871 -2.9615,-1.18836 -4.7254,-6.28369 l -2.0663,-5.96892 -0.2962,6.21762 c -0.2573,5.40261 -0.5507,6.21762 -2.2383,6.21762 -1.7969,0 -1.9422,-0.74427 -1.9422,-9.94819 z m 17.9067,0 v -9.94818 h 7.0367 c 6.1644,0 6.9957,0.21582 6.7061,1.74093 -0.2491,1.31178 -1.4933,1.81567 -5.0471,2.04414 -3.905,0.25105 -4.7164,0.63613 -4.7164,2.23834 0,1.63028 0.7052,1.93513 4.4767,1.93513 3.8134,0 4.4767,0.29477 4.4767,1.98964 0,1.69487 -0.6633,1.98964 -4.4767,1.98964 -3.7735,0 -4.4767,0.30438 -4.4767,1.93765 0,1.63558 0.8128,1.98452 5.2135,2.23834 4.0294,0.2324 5.2886,0.69611 5.5445,2.04162 0.2916,1.53392 -0.565,1.74094 -7.2032,1.74094 h -7.5341 z m 35.0046,8.20725 c 0.1825,-0.95751 1.3345,-1.88398 2.56,-2.05882 2.0181,-0.28792 2.2282,-0.86766 2.2282,-6.14843 0,-5.28076 -0.2101,-5.86051 -2.2282,-6.14843 -1.2255,-0.17483 -2.3775,-1.10131 -2.56,-2.05882 -0.291,-1.52658 0.5436,-1.74093 6.7778,-1.74093 6.2342,0 7.0688,0.21435 6.7778,1.74093 -0.1824,0.95751 -1.3344,1.88399 -2.56,2.05882 -2.018,0.28792 -2.2282,0.86767 -2.2282,6.14843 0,5.28077 0.2102,5.86051 2.2282,6.14843 1.2256,0.17484 2.3776,1.10131 2.56,2.05882 0.291,1.52658 -0.5436,1.74094 -6.7778,1.74094 -6.2342,0 -7.0688,-0.21436 -6.7778,-1.74094 z m 17.7208,-8.27332 v -10.01427 l 2.6591,0.31478 c 2.2698,0.26871 2.9614,1.18836 4.7254,6.2837 l 2.0663,5.96891 0.2962,-6.21762 c 0.2573,-5.40261 0.5507,-6.21761 2.2383,-6.21761 1.7968,0 1.9422,0.74426 1.9422,9.94818 v 9.94819 h -2.7916 c -2.4898,0 -3.0204,-0.61832 -4.9082,-5.72021 l -2.1166,-5.72021 -0.066,5.72021 c -0.058,5.03503 -0.3042,5.72021 -2.0554,5.72021 -1.8579,0 -1.9897,-0.66322 -1.9897,-10.01426 z m 21.6775,1.82327 c -0.2813,-7.97544 -0.3538,-8.19141 -2.7581,-8.20725 -1.5507,-0.0103 -2.5956,-0.66388 -2.8087,-1.7572 -0.3007,-1.5423 0.5769,-1.74093 7.692,-1.74093 7.3683,0 8.0315,0.16429 8.0315,1.98963 0,1.45907 -0.6632,1.98964 -2.487,1.98964 -2.4456,0 -2.4871,0.13264 -2.4871,7.95855 0,7.79101 -0.052,7.95855 -2.4468,7.95855 -2.3777,0 -2.455,-0.23138 -2.7358,-8.19099 z m 14.2082,5.56978 c -1.4259,-1.81274 -2.0619,-4.07263 -2.0619,-7.32698 0,-8.05603 5.6627,-12.31173 11.9236,-8.96101 4.3348,2.31991 4.9344,12.99421 0.9536,16.97505 -2.9069,2.90689 -8.2556,2.5671 -10.8153,-0.68706 z m 8.2773,-2.93166 c 0.8745,-2.27892 0.7131,-7.65673 -0.2767,-9.21859 -0.4675,-0.73777 -1.6917,-1.18158 -2.7205,-0.98624 -1.4279,0.27113 -1.9442,1.38052 -2.1819,4.68838 -0.1713,2.38327 -0.074,4.9535 0.2174,5.71162 0.7222,1.88184 4.2175,1.74435 4.9617,-0.19517 z m 27.5195,3.61872 c -3.9809,-3.98084 -3.3812,-14.65514 0.9535,-16.97505 3.5027,-1.87453 7.6676,-1.15538 9.9243,1.7136 2.0059,2.54994 2.0238,2.73777 0.3209,3.36302 -1.0153,0.37284 -2.4898,0.0621 -3.374,-0.71113 -3.467,-3.03175 -5.8906,-1.14101 -5.8906,4.59552 0,1.55195 0.2717,3.52985 0.6038,4.39532 0.7669,1.99825 4.9664,2.05794 5.7248,0.0814 0.315,-0.82072 1.2318,-1.49222 2.0374,-1.49222 2.6054,0 2.8419,2.07679 0.5182,4.55033 -2.8305,3.01296 -8.0532,3.24433 -10.8183,0.47925 z m 16.9286,-0.68706 c -3.0245,-3.84497 -2.8919,-12.16925 0.2406,-15.11212 3.0285,-2.84505 7.9337,-2.8385 10.5914,0.0142 1.993,2.13918 2.4291,4.32495 2.047,10.25802 -0.4501,6.98912 -8.7384,10.10386 -12.879,4.83993 z m 8.3837,-4.34252 c 0.3606,-1.64145 0.3606,-4.32746 0,-5.96891 -1.1768,-5.35841 -6.4663,-2.91714 -6.4663,2.98445 0,5.90159 5.2895,8.34286 6.4663,2.98446 z m 7.4612,-2.98446 v -9.94818 h 5.0193 c 4.0652,0 5.5057,0.48646 7.5784,2.55904 2.2871,2.28715 2.51,3.15028 2.0975,8.12381 -0.5864,7.072 -2.8716,9.21352 -9.8314,9.21352 h -4.8638 z m 9.4507,0 c 0,-4.91675 -0.2269,-5.50373 -2.2383,-5.7894 -2.1127,-0.30004 -2.2383,0.025 -2.2383,5.7894 0,5.76447 0.1256,6.08945 2.2383,5.7894 2.0114,-0.28566 2.2383,-0.87265 2.2383,-5.7894 z m 8.456,0 v -9.94818 h 7.0367 c 6.1643,0 6.9957,0.21582 6.706,1.74093 -0.2491,1.31178 -1.4932,1.81567 -5.047,2.04414 -3.905,0.25105 -4.7164,0.63613 -4.7164,2.23834 0,1.63028 0.7052,1.93513 4.4767,1.93513 3.8134,0 4.4766,0.29477 4.4766,1.98964 0,1.69487 -0.6632,1.98964 -4.4766,1.98964 -3.7735,0 -4.4767,0.30438 -4.4767,1.93765 0,1.63558 0.8127,1.98452 5.2134,2.23834 4.0294,0.2324 5.2887,0.69611 5.5445,2.04162 0.2916,1.53392 -0.5649,1.74094 -7.2031,1.74094 h -7.5341 z m -472.18902,-42.86917 c -3.97422,-1.15131 -8.88645,-6.70254 -10.23814,-11.56996 -0.57395,-2.06676 -1.04355,-6.44377 -1.04355,-9.72667 0,-7.94375 1.45492,-12.76445 5.10815,-16.92524 8.19977,-9.33903 24.18469,-5.28444 27.59499,6.99949 1.38787,4.99912 1.41515,14.75442 0.055,19.65242 -2.63637,9.49355 -11.73109,14.39313 -21.47641,11.56996 z m 8.56436,-7.84558 c 2.62961,-1.40733 4.01851,-6.29665 4.01851,-14.14631 0,-10.16193 -3.29705,-15.02745 -8.96428,-13.22874 -3.3186,1.05329 -4.96318,5.66711 -4.96318,13.924 0,11.67425 3.74073,16.75218 9.90895,13.45105 z m 30.25008,7.89324 c -1.71356,-0.52055 -4.69446,-2.69411 -6.62422,-4.83011 -8.59686,-9.5157 -6.72102,-31.2422 3.13757,-36.34028 7.4616,-3.85853 14.9414,-2.73202 19.98255,3.00954 3.16614,3.60604 4.01668,7.36578 1.66631,7.36578 -0.75234,0 -2.76684,0.2798 -4.47669,0.62177 -2.35396,0.47078 -3.10881,0.26668 -3.10881,-0.84064 0,-0.80432 -0.90889,-2.28494 -2.01976,-3.29025 -2.81664,-2.54902 -6.88787,-0.99715 -9.23391,3.51979 -1.39916,2.69386 -1.71195,5.07309 -1.39673,10.62442 0.61844,10.89173 4.67045,15.13908 11.67489,12.23774 2.56957,-1.06434 2.96515,-1.74298 2.96515,-5.08678 v -3.85859 h -4.47668 c -4.453,0 -4.47669,-0.0184 -4.47669,-3.48186 v -3.48187 h 8.49198 8.49198 l -0.28472,9.64301 -0.28473,9.64301 -4.47668,2.26923 c -5.33926,2.70646 -11.27448,3.57517 -15.55081,2.27609 z m -124.71861,-21.44907 v -21.49338 l 11.68911,0.35348 c 13.65889,0.41306 17.2406,2.04327 19.25401,8.76345 3.16679,10.56978 -3.9028,18.94755 -15.98889,18.94755 h -5.00605 v 7.46114 7.46114 h -4.97409 -4.97409 z m 20.64248,-3.07614 c 0.68394,-0.92183 1.24352,-2.84792 1.24352,-4.28022 0,-3.95276 -2.00697,-5.76472 -7.21243,-6.51162 l -4.72539,-0.67802 v 7.21191 7.2119 l 4.72539,-0.63896 c 2.65702,-0.35928 5.26969,-1.37259 5.96891,-2.31499 z m 17.16062,3.18092 v -21.3886 h 11.04136 c 8.02026,0 11.95122,0.43175 14.36662,1.57793 8.44851,4.00909 9.44677,14.86378 1.93629,21.05455 l -3.34881,2.76038 4.91419,7.93023 c 2.7028,4.36163 4.91418,8.27311 4.91418,8.69217 0,0.41907 -2.22631,0.76194 -4.94736,0.76194 h -4.94735 l -4.59049,-7.95855 c -3.73787,-6.48038 -5.03624,-7.95855 -6.99046,-7.95855 -2.33676,0 -2.39998,0.20964 -2.39998,7.95855 v 7.95855 h -4.9741 -4.97409 z m 18.09823,-2.52356 c 3.97758,-1.10472 5.36342,-3.48276 4.35986,-7.48127 -0.62961,-2.5086 -2.93495,-3.50359 -8.73837,-3.77149 -3.23618,-0.14939 -3.27769,-0.095 -3.58233,4.69655 -0.50347,7.91884 0.39388,8.65785 7.96084,6.55621 z m 97.30073,2.44024 v -21.47191 l 11.86876,0.33202 c 10.20479,0.28547 12.26189,0.62594 14.67289,2.42851 6.44457,4.81824 6.74531,14.29482 0.63136,19.89498 l -3.5056,3.21101 4.78025,7.97669 c 2.62914,4.38718 5.02625,7.82288 5.32692,7.63487 0.30066,-0.18801 3.4565,-9.55358 7.01298,-20.81239 l 6.46627,-20.47057 5.6403,-0.0142 5.6403,-0.0142 1.5101,4.72539 c 0.8306,2.59896 3.7763,11.80686 6.5462,20.46199 2.7699,8.65514 5.0362,16.15358 5.0362,16.66322 0,0.50963 -1.9973,0.9266 -4.4384,0.9266 -4.3885,0 -4.4504,-0.0474 -5.5206,-4.22798 -0.5953,-2.32539 -1.2699,-4.78756 -1.4993,-5.4715 -0.2804,-0.83575 -2.6874,-1.24352 -7.3407,-1.24352 h -6.92359 l -1.22446,5.4715 -1.22448,5.4715 H 987.2741 977.08683 l -4.34361,-7.70984 c -3.57437,-6.34443 -4.82535,-7.7656 -7.06375,-8.02463 l -2.72013,-0.31482 v 8.02463 8.02462 h -4.47669 -4.47668 z m 57.06153,0.82943 c -0.3716,-1.50466 -1.4411,-5.42176 -2.3768,-8.70466 l -1.701,-5.96891 -1.6888,5.96891 c -0.9289,3.2829 -2.0829,7.2 -2.5645,8.70466 -0.8753,2.7348 -0.8739,2.73576 4.0657,2.73576 4.8911,0 4.9344,-0.0278 4.2654,-2.73576 z m -36.41905,-4.9604 c 0.68394,-0.90062 1.24353,-2.84012 1.24353,-4.30999 0,-3.53193 -1.44797,-4.5433 -7.70985,-5.38514 l -5.22279,-0.70216 v 6.68784 6.68784 l 5.22279,-0.67045 c 3.02615,-0.38847 5.74582,-1.35916 6.46632,-2.30794 z m 53.96885,4.21429 v -21.3886 h 5.8118 5.8116 l 2.3741,10.34093 2.3742,10.34093 2.5697,-10.09222 2.5696,-10.09223 5.659,-0.29835 5.659,-0.29835 v 21.43825 21.43824 h -3.9792 -3.9793 l -0.1036,-14.17616 c -0.1118,-15.29732 -0.1572,-15.30907 -3.855,-0.99482 -1.0173,3.93791 -1.3258,4.22798 -4.4974,4.22798 -3.1669,0 -3.4836,-0.29582 -4.5268,-4.22798 -0.617,-2.32539 -1.9454,-7.13783 -2.9521,-10.6943 l -1.8305,-6.46632 -0.071,16.1658 -0.071,16.1658 h -3.4819 -3.4819 v -21.3886 z m 38.798,0 v -21.3886 h 5.4332 5.4331 l 0.9803,3.73057 c 0.539,2.05181 1.5126,5.96891 2.1632,8.70466 0.6506,2.73575 1.4814,5.31099 1.8461,5.72276 0.3647,0.41175 1.6887,-3.50535 2.9421,-8.70467 l 2.279,-9.45332 h 5.3786 5.3786 v 21.3886 21.3886 h -3.4819 -3.4819 l -0.082,-15.66839 -0.083,-15.6684 -2.6527,9.94819 -2.6528,9.94819 h -3.4726 -3.4726 l -2.6786,-9.45078 -2.6786,-9.45078 -0.067,15.17099 -0.067,15.17098 h -3.4819 -3.4818 v -21.3886 z m 38.7979,0 v -21.3886 h 15.4197 15.4197 v 3.48187 3.48186 h -10.4456 -10.4456 v 5.4715 5.47151 h 9.4507 9.4508 v 3.48186 3.48187 h -9.4508 -9.4507 v 5.4715 5.4715 h 10.943 10.943 v 3.48187 3.48186 h -15.9171 -15.9171 z m 38.7979,-0.0834 v -21.47188 l 11.8688,0.33202 c 10.2047,0.28547 12.2618,0.62594 14.6729,2.42851 6.4506,4.82274 6.7454,14.29467 0.6196,19.90565 l -3.5172,3.22169 3.7801,6.28965 c 2.079,3.45929 4.4209,7.29688 5.2043,8.52797 1.4143,2.22281 1.3861,2.23834 -4.0618,2.23834 h -5.4858 l -4.3437,-7.70984 c -3.5743,-6.34443 -4.8253,-7.7656 -7.0637,-8.02463 l -2.7201,-0.31478 v 8.02463 8.02462 h -4.4767 -4.4767 z m 20.6425,-4.13097 c 0.6839,-0.90062 1.2435,-2.84012 1.2435,-4.30999 0,-3.53193 -1.4479,-4.5433 -7.7098,-5.38514 l -5.2228,-0.70216 v 6.68784 6.68784 l 5.2228,-0.67045 c 3.0261,-0.38847 5.7457,-1.35916 6.4663,-2.30794 z m 27.303,20.8775 0.3032,-4.72539 4.7254,-0.30321 4.7254,-0.30321 v 5.0286 5.0286 h -5.0286 -5.0286 z m 0.469,-19.81347 c -0.3648,-0.36476 -0.6632,-2.6031 -0.6632,-4.97409 v -4.31088 h 4.9741 4.9741 v 4.97409 4.97409 h -4.3109 c -2.371,0 -4.6094,-0.29844 -4.9741,-0.66321 z m -214.87936,-94.40912 c -20.76627,-3.23037 -38.40223,-10.11271 -56.87188,-22.19397 -9.10287,-5.95432 -28.66367,-25.47902 -35.02065,-34.95603 -12.12497,-18.07596 -20.43621,-39.69088 -22.65857,-58.92784 l -0.66083,-5.7202 h 7.96918 7.96917 l 0.65575,4.72539 c 3.27959,23.63284 15.76365,48.99894 32.49997,66.03601 19.30263,19.6495 41.74431,31.13904 68.89875,35.2743 4.94435,0.75296 9.32547,1.37705 9.73583,1.38686 0.41036,0.01 0.74611,3.59919 0.74611,7.9764 0,9.22105 1.18931,8.64723 -13.26283,6.39908 z m 26.19546,-6.19502 v -7.94119 l 3.2332,-0.5579 c 1.7782,-0.30685 5.4714,-0.85106 8.2072,-1.20933 14.924,-1.95449 37.2162,-10.87711 50.1009,-20.05327 15.4045,-10.97065 30.6541,-28.60972 38.8899,-44.98355 3.7181,-7.39232 8.592,-21.92693 10.0313,-29.91478 0.6407,-3.55647 1.3506,-7.47357 1.5774,-8.70466 0.3868,-2.09929 0.9045,-2.23834 8.333,-2.23834 h 7.9206 l -0.5698,4.72539 c -3.6239,30.05307 -19.2505,60.6196 -41.7547,81.67474 -22.3189,20.88182 -46.9605,32.00728 -80.7462,36.45631 l -5.2228,0.68777 z m -30.49058,-83.21282 c -5.47335,-1.38086 -18.13083,-7.37871 -22.23479,-10.53615 l -2.48705,-1.91344 9.78404,-0.0221 9.78402,-0.0221 -4.01729,-4.56388 c -2.2095,-2.51014 -4.95093,-6.49254 -6.09205,-8.84977 -2.21971,-4.58531 -4.42586,-15.84255 -3.55136,-18.12144 0.44156,-1.1507 7.87573,-1.35503 44.81356,-1.2317 38.693,0.1292 44.2842,0.33683 44.2842,1.64451 0,0.82314 -1.4549,4.24529 -3.2331,7.60479 -3.0437,5.75012 -7.8033,11.04388 -17.829,19.82967 l -4.3057,3.77331 10.1978,-0.29145 c 5.6088,-0.16029 10.1974,7.7e-4 10.1969,0.35793 0,1.4553 -11.702,8.27652 -18.3036,10.67138 -6.4666,2.34584 -8.5406,2.57997 -24.47453,2.76295 -11.61693,0.1334 -19.11375,-0.23009 -22.53205,-1.09247 z m 61.34418,-35.40252 c 2.4245,-4.75235 2.429,-4.94623 0.1176,-4.94623 -1.4334,0 -2.081,1.12876 -2.8347,4.9402 -1.1134,5.63134 -0.1539,5.63347 2.7171,0.006 z m 6.9444,-7.18457 c 0,-0.95752 -0.3307,-1.73408 -0.741,-1.72571 -2.2115,0.0452 -3.4578,2.22712 -3.7285,6.52808 l -0.303,4.81486 2.3837,-3.93815 c 1.311,-2.16598 2.386,-4.72157 2.3888,-5.67908 z m -179.76875,-3.41939 c -1.65676,-4.31745 3.95211,-34.59156 8.72021,-47.06766 18.34283,-47.99554 65.37192,-83.36355 115.34382,-86.74381 l 4.47668,-0.30282 v 7.95855 7.95855 l -6.46632,0.64468 c -53.43463,5.32733 -96.63559,47.5818 -105.03374,102.73254 -0.75689,4.97051 -1.38419,10.71752 -1.394,12.77116 l -0.0178,3.73387 -7.53456,-0.11326 c -5.62533,-0.0846 -7.67638,-0.48285 -8.09425,-1.5718 z m 119.93717,-4.80186 c -5.71627,-2.97714 -8.80578,-7.69794 -8.80578,-13.4553 0,-3.75079 0.53398,-4.79273 4.31073,-8.41149 2.93006,-2.80749 5.87736,-4.53186 9.20207,-5.38384 13.01186,-3.33438 14.97996,-5.15384 15.97296,-14.76646 0.3532,-3.41969 0.9718,-6.21762 1.3746,-6.21762 1.6242,0 3.1903,6.24295 2.7404,10.92431 -0.6417,6.67926 -3.8012,10.9979 -12.43235,16.99382 -8.40046,5.83565 -10.22541,8.10663 -10.22541,12.72462 0,2.60046 0.82884,4.17344 3.5527,6.74237 3.32189,3.13295 3.40268,3.34762 1.24352,3.30431 -1.27004,-0.0255 -4.39009,-1.1301 -6.93344,-2.45472 z m 18.05478,0.38859 c -3.24795,-1.29516 -6.95727,-4.78448 -8.02578,-7.54981 -1.94185,-5.02557 3.55374,-11.41676 11.04548,-12.8455 7.5809,-1.44576 9.3379,-3.23571 10.1313,-10.32126 0.3648,-3.25751 1.9392,-3.18204 2.8264,0.1355 1.6017,5.9887 -1.5669,10.9171 -11.2525,17.50203 -3.891,2.64537 -4.7254,3.745 -4.7254,6.22736 0,1.78362 0.8125,3.71036 1.9897,4.71827 3.4653,2.96711 2.5537,3.94488 -1.9892,2.13341 z"/>
    <path
       style="fill:#333333;fill-opacity:1;stroke-width:3.52920103"
       d="M 907.30527,1023.9761 C 739.82086,1002.2166 587.6306,883.66479 525.17023,726.30379 512.01615,693.16373 498.91145,642.89179 495.42265,612.18676 l -2.50622,-22.05749 h 28.13172 28.13173 l 5.73215,31.33129 c 15.80249,86.37516 58.1095,165.9647 120.76733,227.19225 35.82459,35.0068 61.69877,53.19703 109.08919,76.69242 47.05066,23.32698 92.14483,37.22247 134.36053,41.40248 l 27.98269,2.77067 1.02504,29.11589 1.02504,29.11593 -9.84806,-0.4475 c -5.41637,-0.2459 -19.82023,-1.7431 -32.00852,-3.3266 z m 87.45074,-25.31008 v -29.89743 l 27.49909,-2.29333 c 59.8808,-4.99386 128.8153,-30.78659 187.2301,-70.05432 32.725,-21.99828 88.9482,-77.43589 109.7172,-108.18317 35.6613,-52.79516 63.2942,-122.98252 70.3531,-178.6979 l 2.2357,-17.64599 29.2566,-1.02735 29.2569,-1.02727 -2.2346,18.6733 c -6.1235,51.17164 -26.4416,115.17858 -51.0366,160.77626 -25.6586,47.56957 -46.8345,75.94409 -86.4142,115.79114 -82.3227,82.87911 -174.7273,126.99554 -295.5704,141.11284 l -20.29289,2.3707 z M 880.05696,703.54985 c -20.63245,-5.91386 -73.651,-32.84909 -77.76644,-39.50808 -1.23463,-1.99768 11.61081,-3.32849 32.12804,-3.32849 h 34.18518 l -14.8726,-16.13483 C 833.7481,622.89939 821.91851,595.26202 820.88389,567.83776 l -0.82332,-21.82353 158.30565,-0.54615 158.30558,-0.54615 -2.2187,11.13374 c -3.0026,15.06878 -29.8717,54.81905 -45.7694,67.71263 -7.1044,5.76177 -19.6306,16.67357 -27.8354,24.2484 l -14.9187,13.77246 36.174,-2.15491 c 20.9605,-1.24857 36.1743,-0.80402 36.1743,1.05711 0,8.81212 -49.3316,35.28447 -82.9361,44.5051 -26.6578,7.31454 -127.7611,6.24246 -155.28484,-1.64661 z m 227.61014,-135.4781 c 0.036,-6.23104 -5.2139,-8.44881 -8.2708,-3.50231 -0.9089,1.47054 -2.726,9.01423 -4.0379,16.76371 l -2.385,14.0899 7.3353,-10.58759 c 4.0343,-5.82317 7.3456,-13.36686 7.3584,-16.76371 z m 15.503,-0.53337 c 7.4133,-15.62288 7.1852,-19.48826 -1.0228,-17.34183 -4.8322,1.26372 -7.0877,5.62959 -8.0339,15.55101 -1.6191,16.975 1.5535,17.60228 9.0567,1.79082 z M 491.29416,542.32241 c -2.54965,-6.6442 1.09003,-46.13826 7.84643,-85.14148 16.37192,-94.51164 69.63315,-192.84357 140.693,-259.75001 73.54589,-69.24725 160.14227,-111.288871 263.16318,-127.762921 49.92363,-7.983266 45.8796,-10.095178 45.8796,23.95984 v 29.349541 l -35.04241,4.11147 c -41.05759,4.81715 -93.56621,20.775 -130.83002,39.76049 -136.40972,69.49912 -221.09651,196.91661 -235.00225,353.57821 l -2.42779,27.35129 h -26.093 c -20.28369,0 -26.55911,-1.21477 -28.18674,-5.45643 z m 445.54516,-9.29988 c -7.59094,-1.65832 -19.07652,-6.27511 -25.52354,-10.25958 -50.04454,-30.9292 -26.60595,-89.42543 40.15728,-100.22147 8.89702,-1.43869 19.11228,-6.30654 25.2331,-12.02421 8.61626,-8.04883 10.6944,-13.43753 12.81355,-33.2257 1.39115,-12.99032 3.9718,-23.61877 5.7346,-23.61877 5.97889,0 10.71499,19.33052 9.24399,37.72648 -2.0021,25.03326 -14.03195,41.86612 -44.81535,62.70753 -26.02822,17.62194 -35.51098,29.93875 -35.51098,46.12403 0,9.22907 14.29714,26.91764 24.73835,30.60655 10.19228,3.60098 1.56179,5.1633 -12.071,2.18514 z m 37.31886,-10.47055 c -39.9583,-19.77884 -28.86859,-57.48148 20.59783,-70.02804 23.23319,-5.89278 29.38609,-11.76906 31.60479,-30.18272 2.2498,-18.67433 7.0064,-21.65423 11.7673,-7.37177 5.823,17.46869 -2.2719,35.57679 -23.2328,51.97191 -31.12828,24.34822 -34.25611,27.6009 -34.25611,35.62372 0,4.27402 4.26749,12.22525 9.48329,17.66933 11.61672,12.12529 5.61111,12.99714 -15.9643,2.31757 z"/>
</svg>
